<?xml version="1.0" encoding="UTF-8" standalone="no"?>
<svg width="256px" height="256px" viewBox="0 0 256 256" version="1.1" xmlns="http://www.w3.org/2000/svg" xmlns:xlink="http://www.w3.org/1999/xlink" xmlns:sketch="http://www.bohemiancoding.com/sketch/ns">
    <!-- Generator: Sketch 3.3.3 (12072) - http://www.bohemiancoding.com/sketch -->
    <title>Beyond Bitcoin Logo Icon</title>
    <desc>Created with Sketch.</desc>
    <defs>
        <filter x="-50%" y="-50%" width="200%" height="200%" filterUnits="objectBoundingBox" id="filter-1">
            <feOffset dx="2" dy="2" in="SourceAlpha" result="shadowOffsetOuter1"></feOffset>
            <feGaussianBlur stdDeviation="3" in="shadowOffsetOuter1" result="shadowBlurOuter1"></feGaussianBlur>
            <feColorMatrix values="0 0 0 0 0   0 0 0 0 0   0 0 0 0 0  0 0 0 0.105 0" in="shadowBlurOuter1" type="matrix" result="shadowMatrixOuter1"></feColorMatrix>
            <feMerge>
                <feMergeNode in="shadowMatrixOuter1"></feMergeNode>
                <feMergeNode in="SourceGraphic"></feMergeNode>
            </feMerge>
        </filter>
        <filter x="-50%" y="-50%" width="200%" height="200%" filterUnits="objectBoundingBox" id="filter-2">
            <feOffset dx="1" dy="1" in="SourceAlpha" result="shadowOffsetOuter1"></feOffset>
            <feGaussianBlur stdDeviation="1" in="shadowOffsetOuter1" result="shadowBlurOuter1"></feGaussianBlur>
            <feColorMatrix values="0 0 0 0 0   0 0 0 0 0   0 0 0 0 0  0 0 0 0.14 0" in="shadowBlurOuter1" type="matrix" result="shadowMatrixOuter1"></feColorMatrix>
            <feMerge>
                <feMergeNode in="shadowMatrixOuter1"></feMergeNode>
                <feMergeNode in="SourceGraphic"></feMergeNode>
            </feMerge>
        </filter>
    </defs>
    <g id="Page-1" stroke="none" stroke-width="1" fill="none" fill-rule="evenodd" sketch:type="MSPage">
        <g id="Beyond-Bitcoin-Logo-Icon" sketch:type="MSArtboardGroup">
            <g sketch:type="MSLayerGroup" transform="translate(49.000000, 25.000000)">
                <g id="Icon" transform="translate(39.612403, 38.670270)" fill="#00A9E0" sketch:type="MSShapeGroup">
                    <path d="M1.08527132,65.1567568 L1.08527132,105.416216 L32.3629705,105.416216 C32.8457003,102.935405 33.8550445,100.634307 35.2713178,98.6340307 L1.08527132,65.1567568" id="Fill-2"></path>
                    <path d="M1.08527132,111.772973 C1.83547288,122.644283 6.23692138,132.616522 13.132391,140.378378 L35.2713178,118.600423 C33.8547138,116.582419 32.8491245,114.269959 32.3702724,111.772973 L1.08527132,111.772973" id="Fill-3"></path>
                    <path d="M83.0232558,72.1566507 C75.0693653,65.4212504 64.9400174,61.1219758 53.7209302,60.3891892 L53.7209302,90.9908256 C56.2542725,91.4507661 58.6026406,92.4057274 60.6494203,93.7621622 L83.0232558,72.1566507" id="Fill-4"></path>
                    <path d="M65.6589147,118.109741 L88.0365528,139.848649 C94.7353603,132.198398 99.0926027,122.433286 99.8449612,111.772973 L68.237855,111.772973 C67.7993145,114.071566 66.9101635,116.209884 65.6589147,118.109741" id="Fill-5"></path>
                    <path d="M99.3023256,105.416216 C98.5564627,94.5449058 94.1530797,84.5726673 87.2608282,76.8108108 L65.1162791,98.6083967 C66.5122791,100.622475 67.4934677,102.931009 67.9641191,105.416216 L99.3023256,105.416216" id="Fill-6"></path>
                    <path d="M17.9069767,145.032538 C25.8608672,151.767939 35.9902151,156.067213 47.2093023,156.8 L47.2093023,126.147692 C44.6799812,125.703343 42.3316132,124.767871 40.2808123,123.427027 L17.9069767,145.032538" id="Fill-7"></path>
                    <path d="M53.7209302,156.27027 C64.9400174,155.539021 75.0693653,151.248766 83.0232558,144.527496 L60.6614838,122.897297 C58.6106829,124.254776 56.2582937,125.211624 53.7209302,125.670599 L53.7209302,156.27027" id="Fill-8"></path>
                    <path d="M47.2093023,40.9603827 L1.08527132,1.05945946 C1.16554287,1.05945946 1.16554287,53.7987839 1.16554287,55.1806003 C9.58602816,63.4480778 35.8468648,88.9882599 40.7554699,93.7621622 C42.6900142,92.5599039 44.8693867,91.6972445 47.2093023,91.27177 L47.2093023,40.9603827" id="Fill-9"></path>
                </g>
                <g id="Oval-1-+-path4726" transform="translate(71.627907, 128.724324)" sketch:type="MSShapeGroup">
                    <path d="M18.2423134,35.819253 C28.3172649,35.819253 36.4846268,27.8461418 36.4846268,18.0108108 C36.4846268,8.17547979 28.3172649,0.202368661 18.2423134,0.202368661 C8.1673619,0.202368661 0,8.17547979 0,18.0108108 C0,27.8461418 8.1673619,35.819253 18.2423134,35.819253 Z" id="Oval-1" stroke="#ECF0F2" stroke-width="0.55" fill="#F7931A" filter="url(#filter-1)"></path>
                    <path d="M13.3407363,8.29711844 L13.3407363,9.38216526 L13.3407363,21.1316177 L10.7795488,21.1316177 L10.7795488,23.3002332 L13.3407363,23.3002332 L13.3407363,26.589082 L13.3407363,27.6726507 L14.4522479,27.6726507 L20.3276219,27.6726507 C20.3276219,27.6726507 21.6615628,27.6870714 23.0281352,27.0200796 C24.3947075,26.3530518 25.8444942,24.7992973 25.8444942,22.2870013 C25.8444942,19.9111969 24.7844888,18.3562167 23.5917201,17.5355727 C24.4360469,16.7343967 25.1102742,15.4574108 25.1102742,13.6843181 C25.1102742,11.2322283 23.9335442,9.6912001 22.73538,8.98941847 C21.5372122,8.28763685 20.3276219,8.29711844 20.3276219,8.29711844 L14.4522479,8.29711844 L13.3407363,8.29711844 L13.3407363,8.29711844 Z M15.5637633,10.465734 L20.3276219,10.465734 C20.3276219,10.465734 20.9546895,10.4754679 21.5925518,10.8493236 C22.2304288,11.222963 22.8887946,11.8346876 22.8887946,13.6843181 C22.8887946,15.4273077 22.2622588,15.9463074 21.6316976,16.282381 C21.0487391,16.5930381 20.4779897,16.6112442 20.3918025,16.61247 C20.3679457,16.61247 20.3538569,16.6160751 20.3276219,16.6160751 L20.3261447,16.6160751 L15.563863,16.6160751 L15.563863,10.467825 L15.5637633,10.465734 Z M20.4372116,18.7795713 C20.6126623,18.7795713 21.3313459,18.7993997 22.0308886,19.1433326 C22.8352572,19.5385669 23.6230331,20.1847569 23.6230331,22.2870013 C23.6230331,24.0763894 22.8707211,24.6722873 22.0340388,25.0806805 C21.1973528,25.4890737 20.3276219,25.5039991 20.3276219,25.5039991 L15.5637633,25.5039991 L15.5637633,23.3002332 L19.5933797,23.3002332 L19.5933797,21.1316177 L15.5637633,21.1316177 L15.5637633,18.7826357 L20.2963052,18.7826357 L20.3276219,18.7826357 C20.3493367,18.7826357 20.3719157,18.7790305 20.3933683,18.7790305 L20.3980215,18.7790305 C20.3994987,18.7790305 20.412018,18.7754254 20.4371673,18.7754254 L20.4372116,18.7795713 Z" id="path4726" fill="#FFFFFF" filter="url(#filter-2)"></path>
                </g>
                <g id="Fill-1-+-Fill-2-+-Fill-3" transform="translate(2.170543, 7.416216)" sketch:type="MSShapeGroup">
                    <path d="M32.007907,64.1518595 L34.8947287,56.2318703 C28.8524806,53.631427 24.6324031,47.7360649 24.6324031,40.8755351 C24.6324031,31.608973 32.3275194,24.0968757 41.819845,24.0968757 C51.3121705,24.0968757 59.0072868,31.608973 59.0072868,40.8755351 C59.0072868,42.7544865 58.6860465,44.5592757 58.1021705,46.2464649 L66.2932558,48.7881081 C67.1375969,46.2994378 67.6010078,43.6407243 67.6010078,40.8755351 C67.6010078,26.975427 56.0586047,15.7075459 41.819845,15.7075459 C27.5810853,15.7075459 16.0386822,26.975427 16.0386822,40.8755351 C16.0386822,51.3832541 22.6371318,60.3828324 32.007907,64.1518595" id="Fill-1" fill="#00A9E0"></path>
                    <path d="M29.4548062,71.1559459 C17.1358915,66.3576541 8.42658915,54.6130162 8.42658915,40.8755351 C8.42658915,22.8716108 23.3772868,8.2764973 41.819845,8.2764973 C60.2624031,8.2764973 75.2125581,22.8716108 75.2125581,40.8755351 C75.2125581,44.4257838 74.6232558,47.8398919 73.5482946,51.0394595 L81.5055039,53.5090595 C82.833876,49.5302595 83.5610078,45.2865946 83.5610078,40.8755351 C83.5610078,18.3704973 64.8726357,0.127135135 41.819845,0.127135135 C18.7665116,0.127135135 0.0786821705,18.3704973 0.0786821705,40.8755351 C0.0786821705,58.1558486 11.1023256,72.9125297 26.6548062,78.8380865 L29.4548062,71.1559459" id="Fill-2" fill="#F7931A"></path>
                    <path d="M51.8868217,40.8755351 C51.8868217,46.3031459 47.3796899,50.7030811 41.819845,50.7030811 C36.26,50.7030811 31.7528682,46.3031459 31.7528682,40.8755351 C31.7528682,35.4479243 36.26,31.0479892 41.819845,31.0479892 C47.3796899,31.0479892 51.8868217,35.4479243 51.8868217,40.8755351" id="Fill-3" fill="#F7931A"></path>
                </g>
            </g>
        </g>
    </g>
</svg>